<?xml version="1.0" standalone="no"?>
<!DOCTYPE svg PUBLIC "-//W3C//DTD SVG 20010904//EN"
 "http://www.w3.org/TR/2001/REC-SVG-20010904/DTD/svg10.dtd">
<svg version="1.0" xmlns="http://www.w3.org/2000/svg"
 width="959.000000pt" height="228.000000pt" viewBox="0 0 959.000000 228.000000"
 preserveAspectRatio="xMidYMid meet">

<g transform="translate(0.000000,228.000000) scale(0.100000,-0.100000)"
fill="#000000" stroke="none">
<path d="M2016 1496 c-31 -53 -31 -56 -8 -56 15 1 82 76 82 93 0 4 -11 7 -24
7 -18 0 -31 -11 -50 -44z"/>
<path d="M2486 1496 c-31 -53 -31 -56 -8 -56 15 1 82 76 82 93 0 4 -11 7 -24
7 -18 0 -31 -11 -50 -44z"/>
<path d="M2220 1315 l0 -215 25 0 25 0 0 215 0 215 -25 0 -25 0 0 -215z"/>
<path d="M2960 1315 l0 -215 25 0 25 0 0 108 c0 100 2 110 23 129 38 35 63 37
92 9 24 -24 25 -31 25 -136 l0 -110 25 0 25 0 0 113 c0 139 -15 177 -74 192
-32 8 -45 6 -77 -12 l-39 -21 0 79 c0 78 0 79 -25 79 l-25 0 0 -215z"/>
<path d="M6260 1488 c-68 -35 -95 -90 -95 -193 0 -102 26 -154 93 -186 76 -37
192 -9 192 46 l0 25 -32 -20 c-41 -25 -114 -26 -147 -4 -33 23 -51 74 -51 141
0 66 27 135 58 152 30 16 105 13 128 -4 27 -20 44 -18 44 5 0 53 -116 76 -190
38z"/>
<path d="M1550 1475 c0 -24 2 -25 60 -25 l60 0 0 -175 0 -175 25 0 25 0 0 175
0 174 63 3 c54 3 62 5 62 23 0 19 -8 20 -147 23 l-148 3 0 -26z"/>
<path d="M4815 1478 c-3 -13 -4 -102 -3 -198 l3 -175 25 0 25 0 3 170 3 170
67 -170 c62 -156 70 -170 92 -170 22 0 31 15 95 170 l70 170 5 -170 c5 -167 5
-170 28 -173 l22 -3 0 200 0 201 -34 0 c-45 0 -51 -9 -122 -181 -67 -162 -54
-165 -134 36 -29 72 -57 133 -63 137 -7 4 -27 8 -44 8 -26 0 -34 -5 -38 -22z"/>
<path d="M6480 1497 c0 -5 120 -342 135 -380 6 -13 16 -17 38 -15 30 3 32 6
98 188 37 102 68 191 68 198 1 6 -10 12 -23 12 -23 0 -29 -13 -81 -171 -31
-93 -59 -168 -61 -166 -2 2 -30 78 -62 168 -54 155 -59 164 -85 167 -15 2 -27
1 -27 -1z"/>
<path d="M1951 1393 c-42 -21 -70 -80 -71 -148 0 -106 58 -160 165 -151 41 3
63 10 72 22 19 25 3 35 -37 24 -78 -22 -132 3 -145 68 l-7 32 101 0 c58 0 102
4 106 10 13 21 -7 92 -34 122 -34 38 -99 47 -150 21z m107 -40 c12 -10 24 -30
28 -45 l6 -28 -82 0 c-80 0 -81 0 -75 23 19 60 81 85 123 50z"/>
<path d="M2421 1393 c-42 -21 -70 -80 -71 -148 0 -106 58 -160 165 -151 41 3
63 10 72 22 19 25 3 35 -37 24 -78 -22 -132 3 -145 68 l-7 32 101 0 c58 0 102
4 106 10 13 21 -7 92 -34 122 -34 38 -99 47 -150 21z m107 -40 c12 -10 24 -30
28 -45 l6 -28 -82 0 c-80 0 -81 0 -75 23 19 60 81 85 123 50z"/>
<path d="M2732 1390 c-41 -25 -62 -73 -62 -140 0 -94 39 -149 112 -157 52 -5
108 25 108 58 0 11 -3 19 -7 17 -5 -2 -25 -12 -46 -23 -35 -18 -41 -18 -65 -4
-41 23 -54 56 -48 124 4 49 9 64 31 82 31 27 49 28 89 8 37 -20 46 -19 46 5 0
24 -47 50 -92 50 -18 0 -48 -9 -66 -20z"/>
<path d="M3334 1400 c-31 -10 -49 -33 -39 -50 3 -5 21 -2 40 6 19 8 46 14 60
14 32 0 65 -33 65 -64 0 -21 -5 -24 -58 -29 -66 -5 -96 -20 -111 -54 -19 -41
-13 -73 19 -105 27 -27 36 -30 71 -25 22 3 48 12 58 21 22 20 31 20 31 1 0 -9
9 -15 21 -15 20 0 20 4 17 130 -3 117 -5 132 -25 151 -25 25 -99 34 -149 19z
m126 -194 c0 -59 -76 -99 -114 -60 -23 22 -20 60 6 78 12 9 42 16 65 16 42 0
43 -1 43 -34z"/>
<path d="M3685 1386 c-31 -31 -35 -32 -35 -6 0 13 -7 20 -20 20 -19 0 -20 -7
-20 -150 l0 -150 25 0 25 0 0 101 c0 86 3 105 21 130 16 23 28 29 55 29 31 0
35 3 32 23 -5 33 -51 35 -83 3z"/>
<path d="M3870 1398 c-14 -7 -33 -30 -43 -51 -16 -31 -17 -43 -7 -71 8 -25 8
-41 1 -55 -14 -26 -14 -64 0 -78 8 -8 7 -17 -5 -34 -32 -46 -16 -100 35 -118
130 -45 260 49 186 135 -20 23 -33 27 -95 32 -70 5 -101 19 -87 41 3 6 24 8
49 5 80 -11 136 43 123 121 -5 30 -3 35 14 35 12 0 19 7 19 20 0 17 -7 20 -39
20 -21 0 -58 2 -82 5 -27 4 -54 1 -69 -7z m94 -44 c21 -20 20 -73 -1 -96 -36
-40 -103 -9 -103 49 0 50 70 82 104 47z m16 -247 c55 -28 21 -87 -51 -87 -51
0 -79 15 -79 42 0 51 70 75 130 45z"/>
<path d="M4181 1393 c-42 -21 -70 -80 -71 -148 0 -106 58 -160 165 -151 41 3
63 10 72 22 19 25 3 35 -37 24 -78 -22 -132 3 -145 68 l-7 32 101 0 c58 0 102
4 106 10 13 21 -7 92 -34 122 -34 38 -99 47 -150 21z m107 -40 c12 -10 24 -30
28 -45 l6 -28 -82 0 c-80 0 -81 0 -75 23 19 60 81 85 123 50z"/>
<path d="M4525 1386 c-31 -31 -35 -32 -35 -6 0 13 -7 20 -20 20 -19 0 -20 -7
-20 -150 l0 -150 25 0 25 0 0 101 c0 86 3 105 21 130 16 23 28 29 55 29 31 0
35 3 32 23 -5 33 -51 35 -83 3z"/>
<path d="M5413 1394 c-63 -31 -93 -148 -59 -229 39 -93 183 -99 241 -11 48 73
19 213 -49 241 -45 19 -93 19 -133 -1z m107 -39 c33 -17 45 -48 44 -113 -1
-56 -20 -89 -59 -102 -45 -15 -82 1 -100 45 -28 65 -12 145 34 170 34 18 46
18 81 0z"/>
<path d="M5788 1392 c-16 -9 -28 -20 -28 -24 0 -5 -4 -8 -10 -8 -5 0 -10 9
-10 20 0 13 -7 20 -20 20 -19 0 -20 -7 -20 -150 l0 -150 25 0 25 0 0 108 c0
100 2 110 23 129 38 35 63 37 92 9 24 -24 25 -31 25 -136 l0 -110 25 0 25 0 0
110 c0 74 -5 122 -15 145 -22 54 -84 70 -137 37z"/>
</g>
</svg>
