<?xml version="1.0" standalone="no"?>
<!DOCTYPE svg PUBLIC "-//W3C//DTD SVG 20010904//EN"
 "http://www.w3.org/TR/2001/REC-SVG-20010904/DTD/svg10.dtd">
<svg version="1.0" xmlns="http://www.w3.org/2000/svg"
 width="607.000000pt" height="122.000000pt" viewBox="0 0 607.000000 122.000000"
 preserveAspectRatio="xMidYMid meet">

<g transform="translate(0.000000,122.000000) scale(0.100000,-0.100000)"
fill="white" stroke="none">
<path d="M1418 876 c-55 -20 -85 -42 -118 -88 -41 -57 -60 -127 -60 -224 0
-138 44 -229 133 -276 62 -33 174 -32 242 2 45 23 50 29 53 63 2 20 0 37 -3
37 -4 0 -25 -11 -48 -24 -111 -66 -226 -33 -272 77 -36 87 -27 231 18 298 34
50 71 72 129 77 45 3 62 -1 112 -27 32 -17 60 -31 62 -31 14 0 1 70 -15 84
-45 41 -163 57 -233 32z"/>
<path d="M4688 876 c-55 -20 -85 -42 -118 -88 -41 -57 -60 -127 -60 -224 0
-138 44 -229 133 -276 62 -33 174 -32 242 2 45 23 50 29 53 63 2 20 0 37 -3
37 -4 0 -25 -11 -48 -24 -111 -66 -226 -33 -272 77 -36 87 -27 231 18 298 34
50 71 72 129 77 45 3 62 -1 112 -27 32 -17 60 -31 62 -31 14 0 1 70 -15 84
-45 41 -163 57 -233 32z"/>
<path d="M5670 868 c-58 -30 -90 -78 -90 -135 0 -80 41 -129 157 -187 90 -45
113 -68 113 -117 0 -61 -34 -92 -107 -97 -50 -3 -68 0 -113 23 -42 21 -54 24
-61 13 -49 -77 157 -142 270 -84 97 51 127 175 61 259 -11 13 -60 46 -109 71
-50 26 -99 58 -110 73 -28 35 -27 78 4 108 31 32 100 33 164 5 24 -11 45 -20
47 -20 2 0 4 16 4 35 0 29 -5 37 -32 51 -18 9 -59 19 -93 21 -49 4 -68 0 -105
-19z"/>
<path d="M125 867 c-3 -7 -4 -143 -3 -302 l3 -290 125 0 c144 0 184 11 242 63
52 47 75 95 88 180 27 174 -43 305 -183 347 -65 19 -265 21 -272 2z m252 -68
c80 -30 122 -108 123 -225 0 -68 -4 -89 -27 -135 -38 -74 -87 -99 -195 -99
l-78 0 0 235 0 235 74 0 c41 0 87 -5 103 -11z"/>
<path d="M855 863 c-36 -91 -205 -569 -205 -580 0 -10 10 -13 36 -11 36 3 37
5 64 78 l28 75 127 0 127 0 28 -75 c26 -71 29 -75 60 -78 18 -2 36 0 41 5 7 7
-184 557 -205 592 -4 6 -27 11 -51 11 -31 0 -45 -5 -50 -17z m104 -222 c28
-79 51 -146 51 -148 0 -1 -47 -3 -105 -3 -58 0 -105 1 -105 3 0 3 86 262 95
286 3 8 7 12 10 10 2 -3 27 -69 54 -148z"/>
<path d="M1785 868 c-3 -7 -4 -144 -3 -303 l3 -290 35 0 35 0 3 138 3 137 139
0 140 0 0 -141 0 -140 38 3 37 3 0 300 0 300 -37 3 -38 3 0 -130 0 -131 -140
0 -139 0 -3 128 -3 127 -33 3 c-20 2 -34 -2 -37 -10z"/>
<path d="M2385 867 c-3 -7 -4 -143 -3 -302 l3 -290 165 0 165 0 0 30 0 30
-127 3 -128 3 0 109 0 109 108 3 107 3 0 30 0 30 -107 3 -108 3 0 89 0 90 125
0 125 0 0 35 0 35 -160 0 c-120 0 -162 -3 -165 -13z"/>
<path d="M2810 845 l0 -35 140 0 c77 0 140 -3 140 -6 0 -3 -66 -109 -146 -235
-121 -192 -145 -235 -142 -262 l3 -32 195 0 195 0 0 30 0 30 -152 5 -153 5
144 226 c79 125 147 236 151 248 3 11 3 30 0 41 -6 19 -15 20 -191 20 l-184 0
0 -35z"/>
<path d="M3525 868 c-3 -7 -4 -144 -3 -303 l3 -290 153 -3 152 -3 0 36 0 35
-115 0 -115 0 -2 268 -3 267 -33 3 c-20 2 -34 -2 -37 -10z"/>
<path d="M3924 867 c-3 -8 -4 -116 -2 -239 3 -216 4 -224 28 -266 15 -27 42
-54 70 -70 39 -23 56 -27 125 -27 96 0 151 25 190 83 37 56 46 127 43 338 l-3
189 -37 3 -38 3 0 -208 c0 -114 -5 -224 -10 -244 -5 -19 -23 -48 -40 -64 -39
-37 -119 -46 -174 -20 -65 31 -70 52 -76 305 l-5 225 -33 3 c-21 2 -34 -2 -38
-11z"/>
<path d="M5195 863 c-36 -91 -205 -569 -205 -580 0 -10 10 -13 36 -11 36 3 37
5 64 78 l28 75 127 0 127 0 28 -75 c26 -71 29 -75 60 -78 18 -2 36 0 41 5 7 7
-184 557 -205 592 -4 6 -27 11 -51 11 -31 0 -45 -5 -50 -17z m104 -222 c28
-79 51 -146 51 -148 0 -1 -47 -3 -105 -3 -58 0 -105 1 -105 3 0 3 86 262 95
286 3 8 7 12 10 10 2 -3 27 -69 54 -148z"/>
</g>
</svg>
