<?xml version="1.0" standalone="no"?>
<!DOCTYPE svg PUBLIC "-//W3C//DTD SVG 20010904//EN"
 "http://www.w3.org/TR/2001/REC-SVG-20010904/DTD/svg10.dtd">
<svg version="1.0" xmlns="http://www.w3.org/2000/svg"
 width="1560.000000pt" height="2080.000000pt" viewBox="0 0 1560.000000 2080.000000"
 preserveAspectRatio="xMidYMid meet">

<g transform="translate(0.000000,2080.000000) scale(0.100000,-0.100000)"
fill="#000000" stroke="none">
<path d="M5345 18758 c-3 -7 -4 -153 -3 -323 l3 -310 35 0 35 0 3 157 2 156
41 37 c35 31 46 36 81 33 31 -2 46 -10 62 -31 19 -26 21 -44 24 -193 l3 -164
35 0 34 0 0 175 c0 189 -4 207 -55 255 -22 21 -37 25 -85 25 -47 0 -65 -5 -96
-28 l-39 -27 -5 122 -5 123 -33 3 c-20 2 -34 -2 -37 -10z" fill="white"/>
<path d="M1525 18718 c-3 -7 -4 -144 -3 -303 l3 -290 153 -3 152 -3 0 36 0 35
-115 0 -115 0 -2 268 -3 267 -33 3 c-20 2 -34 -2 -37 -10z" fill="white"/>
<path d="M3895 18717 c-3 -7 -4 -143 -3 -302 l3 -290 125 0 c144 0 184 11 242
63 52 47 75 95 88 180 27 174 -43 305 -183 347 -65 19 -265 21 -272 2z m252
-68 c80 -30 122 -108 123 -225 0 -68 -4 -89 -27 -135 -38 -74 -87 -99 -195
-99 l-78 0 0 235 0 235 74 0 c41 0 87 -5 103 -11z" fill="white"/>
<path d="M2493 18561 c-96 -45 -137 -195 -92 -338 13 -42 79 -100 123 -109 49
-9 115 2 154 26 26 16 32 26 32 55 0 19 -2 35 -5 35 -2 0 -21 -11 -41 -25 -23
-16 -51 -25 -75 -25 -90 0 -124 46 -123 165 0 85 17 135 53 155 32 17 103 12
139 -10 45 -27 54 -25 50 12 -4 44 -42 69 -114 74 -45 4 -69 0 -101 -15z" fill="white"/>
<path d="M2888 18564 c-51 -16 -83 -50 -72 -78 8 -20 1 -21 69 10 101 46 175
18 175 -67 l0 -39 -53 0 c-68 0 -142 -22 -173 -51 -64 -60 -47 -175 30 -210
22 -10 56 -19 74 -19 35 0 105 31 118 52 6 9 10 5 14 -12 5 -20 12 -25 35 -25
l30 0 3 165 c3 202 -6 238 -72 269 -49 24 -110 26 -178 5z m172 -283 c0 -43
-4 -52 -35 -80 -45 -40 -95 -42 -130 -6 -29 28 -32 61 -9 93 22 31 48 41 117
41 l57 1 0 -49z" fill="white"/>
<path d="M3355 18573 c-56 -15 -95 -66 -95 -127 0 -50 45 -97 117 -125 32 -12
66 -29 75 -38 27 -24 23 -68 -8 -92 -38 -30 -81 -27 -176 14 -15 6 -18 2 -18
-24 0 -41 33 -61 108 -68 106 -10 183 43 186 126 1 65 -20 90 -111 132 -103
48 -127 85 -83 129 24 24 76 26 127 5 45 -19 43 -20 43 16 0 25 -6 32 -35 45
-33 14 -90 17 -130 7z" fill="white"/>
<path d="M4538 18564 c-51 -16 -83 -50 -72 -78 8 -20 1 -21 69 10 101 46 175
18 175 -67 l0 -39 -53 0 c-68 0 -142 -22 -173 -51 -64 -60 -47 -175 30 -210
22 -10 56 -19 74 -19 35 0 105 31 118 52 6 9 10 5 14 -12 5 -20 12 -25 35 -25
l30 0 3 165 c3 202 -6 238 -72 269 -49 24 -110 26 -178 5z m172 -283 c0 -43
-4 -52 -35 -80 -45 -40 -95 -42 -130 -6 -29 28 -32 61 -9 93 22 31 48 41 117
41 l57 1 0 -49z" fill="white"/>
<path d="M5013 18561 c-96 -45 -137 -195 -92 -338 13 -42 79 -100 123 -109 49
-9 115 2 154 26 26 16 32 26 32 55 0 19 -2 35 -5 35 -2 0 -21 -11 -41 -25 -23
-16 -51 -25 -75 -25 -90 0 -124 46 -123 165 0 85 17 135 53 155 32 17 103 12
139 -10 45 -27 54 -25 50 12 -4 44 -42 69 -114 74 -45 4 -69 0 -101 -15z"/>
<path d="M5935 18561 c-82 -38 -118 -106 -118 -223 0 -96 27 -157 86 -196 36
-24 50 -27 121 -27 45 0 98 6 119 13 31 12 37 18 37 43 0 34 0 33 -64 14 -125
-38 -202 0 -219 107 l-6 37 152 3 152 3 3 40 c13 149 -128 248 -263 186z m135
-56 c35 -18 50 -43 50 -84 l0 -31 -114 0 -114 0 10 38 c22 81 95 115 168 77z" fill="white"/>
<path d="M1917 18564 c-4 -4 -7 -80 -7 -168 0 -177 13 -228 63 -261 57 -37
158 -24 203 26 l19 21 5 -28 c4 -24 11 -30 38 -32 l32 -3 0 225 0 226 -35 0
-35 0 0 -151 c0 -137 -2 -153 -21 -177 -48 -61 -115 -79 -160 -43 -23 19 -24
25 -29 193 l-5 173 -30 3 c-17 2 -34 0 -38 -4z" fill="white"/>
<path d="M6302 18538 l3 -33 92 -5 93 -5 -96 -150 c-145 -230 -146 -227 48
-223 l143 3 0 30 0 30 -102 5 -102 5 95 150 c144 228 145 225 -41 225 l-136 0
3 -32z" fill="white"/>
</g>
</svg>
