<?xml version="1.0" standalone="no"?>
<!DOCTYPE svg PUBLIC "-//W3C//DTD SVG 20010904//EN"
 "http://www.w3.org/TR/2001/REC-SVG-20010904/DTD/svg10.dtd">
<svg version="1.0" xmlns="http://www.w3.org/2000/svg"
 width="928.000000pt" height="220.000000pt" viewBox="0 0 928.000000 220.000000"
 preserveAspectRatio="xMidYMid meet">

<g transform="translate(0.000000,220.000000) scale(0.100000,-0.100000)"
fill="white" stroke="none">
<path d="M2187 1500 c-135 -34 -256 -149 -303 -290 -26 -77 -26 -254 0 -330
42 -122 140 -223 250 -255 57 -17 208 -20 276 -5 87 20 97 27 104 77 3 26 4
48 1 51 -2 3 -28 -6 -57 -18 -79 -34 -214 -39 -288 -11 -117 44 -190 153 -198
294 -8 133 23 230 99 312 93 101 265 121 432 50 15 -6 17 -1 17 44 0 51 -1 52
-37 68 -45 19 -238 27 -296 13z"/>
<path d="M6960 1495 c-147 -42 -265 -167 -301 -321 -17 -74 -14 -212 6 -280
32 -113 109 -203 214 -253 51 -24 67 -26 181 -26 96 0 139 4 183 19 l57 19 0
53 0 54 -37 -20 c-90 -48 -251 -52 -337 -9 -127 63 -194 222 -166 393 20 125
78 209 178 258 61 30 74 33 157 32 68 0 103 -6 145 -22 30 -12 56 -22 58 -22
1 0 2 25 2 55 0 54 0 54 -37 65 -64 20 -240 22 -303 5z"/>
<path d="M8435 1496 c-85 -27 -152 -81 -174 -139 -18 -46 -13 -126 10 -174 26
-54 69 -88 199 -157 124 -67 165 -97 186 -138 35 -67 -8 -156 -85 -178 -87
-24 -232 1 -303 51 l-28 20 0 -59 c0 -37 5 -64 13 -71 32 -26 141 -43 242 -39
113 6 162 22 213 71 50 47 65 84 65 152 0 115 -52 176 -236 271 -177 93 -211
144 -164 242 29 60 161 87 272 57 36 -9 68 -21 71 -26 15 -25 25 -4 22 48 l-3
57 -40 12 c-53 16 -209 16 -260 0z"/>
<path d="M280 1060 l0 -442 183 4 c150 4 192 9 238 26 185 67 289 221 289 426
0 174 -65 302 -185 363 -87 45 -140 54 -337 60 l-188 6 0 -443z m431 312 c59
-26 115 -82 143 -141 18 -38 21 -65 21 -161 0 -103 -3 -121 -26 -170 -62 -133
-179 -189 -391 -190 l-68 0 0 346 0 346 138 -4 c110 -4 146 -9 183 -26z"/>
<path d="M1361 1478 c-24 -60 -286 -741 -306 -795 l-24 -63 58 0 58 0 44 123
44 122 185 0 185 0 46 -120 47 -120 57 -3 c52 -3 57 -1 51 15 -3 10 -79 208
-169 440 l-162 423 -53 0 c-45 0 -54 -3 -61 -22z m90 -186 c15 -42 47 -134 73
-204 l46 -128 -151 0 c-140 0 -151 1 -144 18 28 69 135 369 135 380 0 32 17 5
41 -66z"/>
<path d="M2690 1060 l0 -440 55 0 55 0 0 200 0 200 225 0 225 0 0 -200 0 -200
50 0 50 0 0 440 0 440 -50 0 -50 0 0 -195 0 -195 -225 0 -225 0 0 195 0 195
-55 0 -55 0 0 -440z"/>
<path d="M3580 1060 l0 -440 235 0 235 0 0 45 0 45 -180 0 -180 0 0 155 0 155
155 0 155 0 0 45 0 45 -155 0 -155 0 0 145 0 145 170 0 170 0 0 50 0 50 -225
0 -225 0 0 -440z"/>
<path d="M4160 1450 l0 -50 230 0 c127 0 230 -2 230 -5 0 -3 -111 -170 -246
-371 -136 -201 -249 -374 -251 -385 -5 -18 4 -19 326 -19 l331 0 0 45 0 45
-250 2 -251 3 256 379 c140 209 255 386 255 393 0 10 -60 13 -315 13 l-315 0
0 -50z"/>
<path d="M5270 1060 l0 -440 230 0 230 0 0 45 0 45 -175 0 -175 0 0 395 0 395
-55 0 -55 0 0 -440z"/>
<path d="M5832 1173 c4 -382 8 -404 89 -485 62 -62 127 -82 253 -76 146 7 232
61 278 177 22 53 23 71 26 384 l3 327 -50 0 -51 0 0 -297 c0 -335 -8 -388 -64
-448 -77 -81 -263 -72 -328 16 -49 66 -52 85 -56 417 l-4 312 -49 0 -50 0 3
-327z"/>
<path d="M7546 1066 c-91 -238 -166 -436 -166 -440 0 -4 25 -6 56 -4 l57 3 42
120 43 120 185 3 185 2 22 -57 c12 -32 33 -88 47 -125 l25 -68 59 0 59 0 -21
53 c-12 28 -86 221 -166 427 -80 206 -147 381 -150 388 -3 7 -25 12 -58 12
l-52 0 -167 -434z m295 98 c38 -105 69 -194 69 -198 0 -3 -65 -6 -145 -6 -80
0 -145 4 -145 9 0 4 32 95 70 200 39 106 71 200 71 209 1 13 3 12 6 -3 3 -11
36 -106 74 -211z"/>
</g>
</svg>
